<?xml version="1.0" standalone="no"?>
<!DOCTYPE svg PUBLIC "-//W3C//DTD SVG 20010904//EN"
 "http://www.w3.org/TR/2001/REC-SVG-20010904/DTD/svg10.dtd">
<svg version="1.0" xmlns="http://www.w3.org/2000/svg"
 width="900.000000pt" height="900.000000pt" viewBox="0 0 900.000000 900.000000"
 preserveAspectRatio="xMidYMid meet">
<metadata>
Created by potrace 1.15, written by Peter Selinger 2001-2017
</metadata>
<g transform="translate(0.000000,900.000000) scale(0.100000,-0.100000)"
fill="#000000" stroke="none">
<path d="M3646 8220 c-990 -69 -1880 -524 -2409 -1233 -134 -180 -276 -439
-347 -636 -43 -117 -95 -322 -116 -461 -25 -159 -25 -513 -1 -655 57 -325 193
-669 375 -947 l70 -107 -93 -728 c-51 -400 -93 -729 -91 -730 2 -3 418 171
921 385 l350 149 75 -34 c350 -160 797 -281 1148 -309 l82 -7 10 -41 c74 -292
263 -608 511 -853 432 -427 994 -661 1674 -698 377 -21 810 73 1203 260 l132
64 175 -104 c210 -125 715 -408 720 -403 4 4 -31 312 -95 839 l-41 336 50 77
c125 193 230 443 273 659 30 146 32 427 4 582 -109 609 -520 1133 -1130 1442
-72 36 -132 66 -132 67 -1 0 2 26 7 56 50 306 21 717 -71 1028 -269 906 -1077
1626 -2127 1896 -349 90 -777 130 -1127 106z m659 -643 c324 -50 578 -128 850
-262 661 -325 1106 -884 1200 -1510 21 -143 17 -466 -6 -490 -3 -2 -47 2 -99
10 -195 29 -336 36 -504 24 -368 -25 -677 -105 -991 -259 -366 -179 -662 -433
-879 -754 -77 -112 -182 -323 -220 -441 -33 -102 -76 -290 -76 -334 l0 -34
-88 6 c-242 15 -652 153 -1038 347 l-135 69 -265 -115 c-146 -64 -267 -114
-269 -112 -1 2 16 141 38 309 l40 306 -35 44 c-67 82 -173 254 -244 394 -252
499 -278 936 -85 1420 168 420 529 808 986 1062 293 163 716 295 1060 332 135
14 639 6 760 -12z m1833 -2868 c234 -25 458 -91 667 -195 173 -86 296 -175
435 -314 240 -240 366 -504 386 -810 15 -228 -82 -502 -291 -814 l-79 -119 16
-88 c8 -49 12 -89 9 -89 -3 0 -35 16 -71 35 -35 19 -67 35 -71 35 -3 0 -48
-26 -100 -57 -273 -165 -597 -285 -884 -328 -130 -19 -382 -19 -532 0 -519 68
-971 326 -1227 703 -123 181 -185 351 -207 570 -33 331 105 684 375 957 239
241 530 397 896 479 63 14 151 29 195 34 114 13 369 14 483 1z"/>
<path d="M2732 6920 c-131 -19 -258 -118 -320 -248 -30 -62 -36 -89 -40 -157
-8 -151 33 -261 134 -363 101 -101 229 -146 356 -123 194 34 347 189 378 384
46 291 -212 549 -508 507z"/>
<path d="M4820 6919 c-232 -29 -413 -273 -373 -506 43 -247 274 -423 504 -383
267 46 439 324 360 579 -66 212 -264 337 -491 310z"/>
<path d="M5030 4311 c-96 -31 -172 -97 -216 -187 -25 -50 -29 -71 -29 -139 1
-65 6 -91 27 -137 68 -148 233 -231 380 -193 109 28 182 86 236 189 23 44 27
63 27 141 0 84 -2 94 -34 153 -63 117 -157 175 -286 179 -44 1 -91 -1 -105 -6z"/>
<path d="M6589 4306 c-157 -56 -251 -218 -219 -381 53 -270 361 -371 553 -182
79 78 102 132 102 242 0 80 -3 96 -29 145 -38 74 -113 144 -182 170 -63 23
-169 26 -225 6z"/>
</g>
</svg>
